# xmcd
#
# Track frame offsets: 
#        150
#        3512
#        16762
#        30065
#        50555
#        63147
#        72055
#        92217
#        109817
#        113452
#        122052
#        133810
#        142340
#        162217
#
# Disc length: 2546 seconds
#
# Revision: 100
# Processed by: cddbd v1.5.2PL0 Copyright (c) Steve Scherf et al.
# Submitted via: ExactAudioCopy v1.3
#
DISCID=b209f00e
DTITLE=The Offspring - Ixnay on the Hombre
DYEAR=1997
DGENRE=Punk Rock
TTITLE0=Disclaimer
TTITLE1=The Meaning Of Life
TTITLE2=Mota
TTITLE3=Me and My Old Lady
TTITLE4=Cool To Hate
TTITLE5=Leave It Behind
TTITLE6=Gone Away
TTITLE7=I Choose
TTITLE8=Intermission
TTITLE9=All I Want
TTITLE10=Way Down The Line
TTITLE11=Don't Pick It Up
TTITLE12=Amazed
TTITLE13=Change The World
EXTD=YEAR: 1997
EXTT0=
EXTT1=
EXTT2=
EXTT3=
EXTT4=
EXTT5=
EXTT6=
EXTT7=
EXTT8=
EXTT9=
EXTT10=
EXTT11=
EXTT12=
EXTT13=
PLAYORDER=
